M48
; DRILL file {KiCad 5.1.7} date Sat Nov 28 14:23:18 2020
; FORMAT={-:-/ absolute / inch / decimal}
; #@! TF.CreationDate,2020-11-28T14:23:18-05:00
; #@! TF.GenerationSoftware,Kicad,Pcbnew,5.1.7
; #@! TF.FileFunction,Plated,1,2,PTH
FMAT,2
INCH
T1C0.0150
T2C0.0315
T3C0.0330
T4C0.0394
T5C0.0433
T6C0.0472
T7C0.0512
T8C0.0650
T9C0.0669
T10C0.1160
%
G90
G05
T1
X3.561Y-2.797
X3.963Y-2.797
X4.239Y-4.126
X4.239Y-4.245
X4.388Y-1.759
X4.388Y-2.167
X4.636Y-4.245
X4.753Y-4.365
X4.753Y-4.603
X4.768Y-4.245
X5.029Y-4.126
X5.35Y-4.245
X5.35Y-4.365
X5.814Y-4.603
X6.093Y-1.7468
X6.093Y-2.1513
X6.334Y-3.056
X6.732Y-3.056
X6.814Y-4.243
X6.814Y-4.635
T2
X6.965Y-4.402
X7.202Y-4.402
X6.535Y-5.745
X7.01Y-5.745
X7.48Y-5.622
X7.717Y-5.622
X6.965Y-4.275
X7.202Y-4.275
X5.076Y-5.467
X5.196Y-5.467
X5.316Y-5.467
X6.409Y-3.301
X6.529Y-3.301
X6.649Y-3.301
X4.67Y-2.752
X4.907Y-2.752
X5.52Y-5.23
X5.6578Y-5.23
X7.125Y-5.0681
X7.125Y-5.265
X7.325Y-4.637
X7.562Y-4.637
X6.37Y-4.007
X6.607Y-4.007
X6.45Y-3.527
X6.687Y-3.527
X5.43Y-5.507
X5.667Y-5.507
X3.482Y-2.682
X3.6789Y-2.682
X4.99Y-5.075
X5.465Y-5.075
X4.545Y-1.795
X4.945Y-1.795
X3.01Y-3.807
X3.247Y-3.807
X7.59Y-4.44
X7.7278Y-4.44
X4.895Y-3.025
X5.295Y-3.025
X5.905Y-4.915
X6.38Y-4.915
X5.065Y-2.902
X5.302Y-2.902
X4.55Y-2.887
X4.787Y-2.887
X4.545Y-1.67
X4.945Y-1.67
X6.535Y-5.62
X7.01Y-5.62
X7.48Y-5.502
X7.717Y-5.502
X5.415Y-1.665
X5.815Y-1.665
X7.085Y-4.127
X7.205Y-4.127
X7.325Y-4.127
X5.745Y-3.497
X5.982Y-3.497
X7.625Y-5.075
X7.7628Y-5.075
X4.76Y-3.825
X4.8978Y-3.825
X6.37Y-3.687
X6.607Y-3.687
X7.4Y-3.837
X7.637Y-3.837
X5.19Y-4.047
X5.427Y-4.047
X4.635Y-4.005
X5.11Y-4.005
X5.43Y-5.747
X5.667Y-5.747
X5.905Y-5.025
X6.38Y-5.025
X5.935Y-3.06
X5.935Y-3.2569
X4.8Y-5.6031
X4.8Y-5.8
X2.935Y-4.472
X3.055Y-4.472
X3.175Y-4.472
X6.723Y-3.733
X6.843Y-3.733
X6.963Y-3.733
X3.371Y-3.055
X3.371Y-3.455
X4.88Y-5.19
X5.355Y-5.19
X4.52Y-3.537
X4.757Y-3.537
X7.325Y-3.055
X7.325Y-3.455
X2.937Y-4.287
X3.1739Y-4.287
X7.2Y-3.055
X7.2Y-3.455
X5.195Y-5.72
X5.195Y-5.8578
X3.205Y-2.122
X3.4019Y-2.122
X5.738Y-3.375
X5.975Y-3.375
X4.945Y-2.121
X5.1419Y-2.121
X7.48Y-4.872
X7.717Y-4.872
X7.35Y-4.435
X7.4878Y-4.435
X6.4Y-3.42
X6.54Y-3.42
X5.649Y-2.148
X5.769Y-2.148
X5.889Y-2.148
X5.018Y-2.779
X5.138Y-2.779
X5.258Y-2.779
X5.43Y-5.627
X5.667Y-5.627
X6.215Y-2.685
X6.215Y-3.485
X4.72Y-4.95
X4.72Y-5.0484
X7.4Y-5.262
X7.637Y-5.262
X5.54Y-3.45
X5.54Y-3.5484
X3.375Y-3.65
X3.375Y-4.05
X4.88Y-5.305
X5.355Y-5.305
X7.185Y-3.65
X7.3228Y-3.65
X6.37Y-3.807
X6.607Y-3.807
X7.48Y-5.382
X7.717Y-5.382
X4.97Y-3.29
X5.23Y-3.29
X5.985Y-4.68
X6.46Y-4.68
X7.118Y-5.466
X7.238Y-5.466
X7.358Y-5.466
X5.489Y-3.101
X5.609Y-3.101
X5.729Y-3.101
X7.385Y-5.075
X7.5228Y-5.075
X4.395Y-2.7
X4.395Y-3.5
X4.87Y-3.577
X5.107Y-3.577
X5.585Y-4.442
X5.822Y-4.442
X5.9Y-5.19
X5.9Y-5.2884
X5.3Y-2.033
X5.4969Y-2.033
X4.545Y-1.92
X4.945Y-1.92
X7.483Y-4.245
X7.72Y-4.245
X6.975Y-4.795
X7.1128Y-4.795
X6.722Y-3.932
X6.842Y-3.932
X6.962Y-3.932
X4.115Y-2.425
X4.115Y-2.5628
X3.005Y-4.625
X3.005Y-4.7628
X4.99Y-4.715
X5.465Y-4.715
X3.13Y-4.92
X3.13Y-5.157
X5.585Y-4.282
X5.822Y-4.282
X7.44Y-4.045
X7.6369Y-4.045
X5.58Y-3.692
X5.817Y-3.692
X4.55Y-3.007
X4.787Y-3.007
X6.83Y-3.415
X6.9678Y-3.415
X5.415Y-1.79
X5.815Y-1.79
X4.99Y-4.83
X5.465Y-4.83
X2.926Y-4.136
X3.046Y-4.136
X3.166Y-4.136
X6.575Y-4.797
X6.812Y-4.797
X7.081Y-3.972
X7.201Y-3.972
X7.321Y-3.972
X5.415Y-1.915
X5.815Y-1.915
X7.245Y-5.68
X7.245Y-5.8178
X3.535Y-3.255
X3.535Y-4.055
X5.46Y-2.902
X5.697Y-2.902
X6.02Y-4.205
X6.1578Y-4.205
X5.38Y-3.257
X5.617Y-3.257
X5.43Y-5.387
X5.667Y-5.387
X5.3Y-3.525
X5.3Y-3.6234
X3.156Y-2.859
X3.3529Y-2.859
X4.504Y-2.145
X4.624Y-2.145
X4.744Y-2.145
X3.402Y-1.954
X3.5989Y-1.954
X6.53Y-4.25
X6.53Y-4.3878
X5.815Y-2.902
X6.052Y-2.902
X5.585Y-4.047
X5.822Y-4.047
X5.025Y-3.765
X5.425Y-3.765
X7.48Y-5.742
X7.717Y-5.742
X4.605Y-3.38
X4.7428Y-3.38
X4.99Y-4.95
X5.465Y-4.95
X3.01Y-3.937
X3.247Y-3.937
X5.652Y-2.778
X5.772Y-2.778
X5.892Y-2.778
X4.628Y-3.175
X4.748Y-3.175
X4.868Y-3.175
X5.985Y-4.795
X6.46Y-4.795
T3
X4.12Y-5.905
X7.71Y-4.615
X3.13Y-5.335
X7.68Y-3.35
X7.77Y-5.25
X7.755Y-5.9
X7.68Y-3.575
X6.545Y-5.895
X5.905Y-5.79
T4
X4.115Y-2.0
X4.115Y-2.1969
X3.825Y-3.81
X4.0219Y-3.81
X6.095Y-3.645
X6.095Y-3.8419
X3.335Y-4.305
X3.5319Y-4.305
X3.3402Y-2.394
X3.4816Y-2.2526
X3.4816Y-2.5354
X3.623Y-2.394
X3.8Y-4.34
X3.9969Y-4.34
T5
X4.657Y-2.429
X4.817Y-2.429
X4.977Y-2.429
X6.33Y-1.8
X6.93Y-1.8
X5.572Y-2.422
X5.732Y-2.422
X5.892Y-2.422
X3.205Y-3.02
X3.205Y-3.62
T6
X3.765Y-3.18
X4.0603Y-3.18
X4.475Y-3.835
X4.475Y-4.495
X3.415Y-4.64
X3.415Y-5.5809
T7
X4.1313Y-5.6884
X4.525Y-5.59
X4.525Y-5.7869
X2.825Y-2.315
X2.825Y-3.2008
X2.825Y-1.905
X2.825Y-2.105
X2.775Y-3.51
X2.775Y-3.71
X6.0213Y-5.6884
X6.415Y-5.59
X6.415Y-5.7869
X2.76Y-5.24
X2.76Y-5.44
X3.16Y-5.84
X3.36Y-5.84
X2.76Y-5.685
X2.76Y-5.885
T8
X6.705Y-2.285
X6.705Y-2.805
X6.955Y-2.285
X6.955Y-2.805
X7.205Y-2.285
X7.205Y-2.805
X7.366Y-2.285
X7.366Y-2.805
T9
X4.79Y-1.5109
X4.9457Y-1.5109
X5.1013Y-1.5109
X5.2568Y-1.5109
X5.4143Y-1.5109
X5.5698Y-1.5109
T10
X7.755Y-1.8
X2.73Y-5.01
X7.755Y-2.79
X2.73Y-4.045
X7.755Y-2.15
X2.73Y-4.525
X7.755Y-3.145
X2.73Y-4.285
X3.905Y-5.865
X7.755Y-2.47
X3.76Y-5.605
X2.73Y-4.775
X3.635Y-5.865
T0
M30
