G04 #@! TF.GenerationSoftware,KiCad,Pcbnew,5.1.7*
G04 #@! TF.CreationDate,2020-11-28T14:23:16-05:00*
G04 #@! TF.ProjectId,CR-2020 relay board LC-67183-1,43522d32-3032-4302-9072-656c61792062,1*
G04 #@! TF.SameCoordinates,Original*
G04 #@! TF.FileFunction,Legend,Bot*
G04 #@! TF.FilePolarity,Positive*
%FSLAX46Y46*%
G04 Gerber Fmt 4.6, Leading zero omitted, Abs format (unit mm)*
G04 Created by KiCad (PCBNEW 5.1.7) date 2020-11-28 14:23:16*
%MOMM*%
%LPD*%
G01*
G04 APERTURE LIST*
%ADD10C,0.300000*%
G04 APERTURE END LIST*
D10*
X198030028Y-39436561D02*
X198982409Y-39436561D01*
X198982409Y-37436561D01*
X196220504Y-39246085D02*
X196315742Y-39341323D01*
X196601457Y-39436561D01*
X196791933Y-39436561D01*
X197077647Y-39341323D01*
X197268123Y-39150847D01*
X197363361Y-38960371D01*
X197458600Y-38579419D01*
X197458600Y-38293704D01*
X197363361Y-37912752D01*
X197268123Y-37722276D01*
X197077647Y-37531800D01*
X196791933Y-37436561D01*
X196601457Y-37436561D01*
X196315742Y-37531800D01*
X196220504Y-37627038D01*
X195363361Y-38674657D02*
X193839552Y-38674657D01*
X192030028Y-37436561D02*
X192410980Y-37436561D01*
X192601457Y-37531800D01*
X192696695Y-37627038D01*
X192887171Y-37912752D01*
X192982409Y-38293704D01*
X192982409Y-39055609D01*
X192887171Y-39246085D01*
X192791933Y-39341323D01*
X192601457Y-39436561D01*
X192220504Y-39436561D01*
X192030028Y-39341323D01*
X191934790Y-39246085D01*
X191839552Y-39055609D01*
X191839552Y-38579419D01*
X191934790Y-38388942D01*
X192030028Y-38293704D01*
X192220504Y-38198466D01*
X192601457Y-38198466D01*
X192791933Y-38293704D01*
X192887171Y-38388942D01*
X192982409Y-38579419D01*
X191172885Y-37436561D02*
X189839552Y-37436561D01*
X190696695Y-39436561D01*
X188030028Y-39436561D02*
X189172885Y-39436561D01*
X188601457Y-39436561D02*
X188601457Y-37436561D01*
X188791933Y-37722276D01*
X188982409Y-37912752D01*
X189172885Y-38007990D01*
X186887171Y-38293704D02*
X187077647Y-38198466D01*
X187172885Y-38103228D01*
X187268123Y-37912752D01*
X187268123Y-37817514D01*
X187172885Y-37627038D01*
X187077647Y-37531800D01*
X186887171Y-37436561D01*
X186506219Y-37436561D01*
X186315742Y-37531800D01*
X186220504Y-37627038D01*
X186125266Y-37817514D01*
X186125266Y-37912752D01*
X186220504Y-38103228D01*
X186315742Y-38198466D01*
X186506219Y-38293704D01*
X186887171Y-38293704D01*
X187077647Y-38388942D01*
X187172885Y-38484180D01*
X187268123Y-38674657D01*
X187268123Y-39055609D01*
X187172885Y-39246085D01*
X187077647Y-39341323D01*
X186887171Y-39436561D01*
X186506219Y-39436561D01*
X186315742Y-39341323D01*
X186220504Y-39246085D01*
X186125266Y-39055609D01*
X186125266Y-38674657D01*
X186220504Y-38484180D01*
X186315742Y-38388942D01*
X186506219Y-38293704D01*
X185458600Y-37436561D02*
X184220504Y-37436561D01*
X184887171Y-38198466D01*
X184601457Y-38198466D01*
X184410980Y-38293704D01*
X184315742Y-38388942D01*
X184220504Y-38579419D01*
X184220504Y-39055609D01*
X184315742Y-39246085D01*
X184410980Y-39341323D01*
X184601457Y-39436561D01*
X185172885Y-39436561D01*
X185363361Y-39341323D01*
X185458600Y-39246085D01*
X183363361Y-38674657D02*
X181839552Y-38674657D01*
X179839552Y-39436561D02*
X180982409Y-39436561D01*
X180410980Y-39436561D02*
X180410980Y-37436561D01*
X180601457Y-37722276D01*
X180791933Y-37912752D01*
X180982409Y-38007990D01*
X198767104Y-35512380D02*
X198767104Y-36464761D01*
X199433771Y-34464761D02*
X198767104Y-35512380D01*
X198100438Y-34464761D01*
X197529009Y-35893333D02*
X196576628Y-35893333D01*
X197719485Y-36464761D02*
X197052819Y-34464761D01*
X196386152Y-36464761D01*
X195719485Y-36464761D02*
X195719485Y-34464761D01*
X195052819Y-35893333D01*
X194386152Y-34464761D01*
X194386152Y-36464761D01*
X193529009Y-35893333D02*
X192576628Y-35893333D01*
X193719485Y-36464761D02*
X193052819Y-34464761D01*
X192386152Y-36464761D01*
X191719485Y-36464761D02*
X191719485Y-34464761D01*
X191719485Y-35417142D02*
X190576628Y-35417142D01*
X190576628Y-36464761D02*
X190576628Y-34464761D01*
X189719485Y-35893333D02*
X188767104Y-35893333D01*
X189909961Y-36464761D02*
X189243295Y-34464761D01*
X188576628Y-36464761D01*
M02*
